<svg width="155" height="34" viewBox="0 0 155 34" fill="none" xmlns="http://www.w3.org/2000/svg">
<path fill-rule="evenodd" clip-rule="evenodd" d="M75.1756 16.9262C75.4017 15.7411 75.1756 16.9262 75.1756 16.9262C75.347 16.875 75.5183 16.8238 75.7011 16.7805C75.4105 18.3286 75.3645 19.8423 75.5138 21.2703C75.6921 22.8034 76.1275 24.2597 76.7862 25.5649C77.5165 26.9877 78.5515 28.2647 79.8744 29.2485C81.335 30.3277 83.05 31.0395 85.2852 31.2454C87.5283 31.4397 90.0849 30.985 92.4279 29.9067C94.9156 28.742 97.2127 26.9696 99.0655 24.6859C100.938 22.3987 102.278 19.7264 102.928 16.949C103.575 14.2723 103.53 11.5408 102.839 9.22793C102.147 6.91503 100.987 5.27947 99.5252 4.02982C98.2015 2.87556 96.634 2.14695 94.9711 1.77688C93.4662 1.44832 91.4059 1.65227 89.6335 2.00459C88.0086 2.34013 86.8799 2.64566 85.8325 3.17727C84.7852 3.70888 85.8325 3.17727 85.8325 3.17727C85.8476 2.98387 85.8511 2.78252 85.8546 2.58117C87.3948 1.77934 88.9924 1.23803 90.5546 0.94399C92.2643 0.633176 93.9882 0.620855 95.6211 0.936169C97.4394 1.27798 99.1615 2.02867 100.64 3.20502C102.297 4.53945 103.615 6.26686 104.442 8.77581C105.281 11.2927 105.43 14.3165 104.762 17.2679C104.068 20.3543 102.599 23.311 100.509 25.8384C98.4437 28.3314 95.9029 30.3086 93.1202 31.5069C90.5167 32.6426 87.7164 33.0814 85.2737 32.7829C82.831 32.4843 81.01 31.6312 79.4399 30.3912C78.0455 29.29 76.9584 27.8919 76.2113 26.3218C75.5313 24.8999 75.1843 22.8255 75.0696 20.9798C74.9521 19.285 74.9495 18.1114 75.1756 16.9262Z" fill="#0E4071"/>
<path fill-rule="evenodd" clip-rule="evenodd" d="M77.5898 20.7703C77.7629 20.6184 77.9395 20.486 78.1126 20.3341C78.8455 22.4889 80.3635 24.2702 82.4706 25.1516C84.8815 26.1584 88.0298 25.9774 91.3133 23.8351C95.1576 21.079 96.7499 17.7488 97.2905 15.2019C97.8213 12.7672 97.3736 11.1325 97.3144 10.9726C98.2195 13.4675 97.8556 16.3235 96.757 18.8915C95.6221 21.5364 93.8055 23.7433 91.9977 25.0052C88.5491 27.288 85.0113 27.5899 82.3037 26.4966C79.9617 25.5375 78.2997 23.5716 77.6136 20.9567C77.6101 20.9372 77.5818 20.7818 77.5898 20.7703Z" fill="#0E4071"/>
<path fill-rule="evenodd" clip-rule="evenodd" d="M98.1002 4.31831C98.2009 4.76164 97.7611 5.32329 97.1411 5.55642C96.5212 5.78955 95.9551 5.60143 95.8774 5.174C95.7997 4.74657 96.2121 4.19993 96.8012 3.96239C97.4097 3.72131 97.9996 3.87499 98.1002 4.31831Z" fill="#0E4071"/>
<path fill-rule="evenodd" clip-rule="evenodd" d="M88.0364 13.3301C88.0699 14.7289 86.9006 16.2461 85.5786 16.5366C84.2486 16.8386 83.3584 15.9166 83.4433 14.6167C83.5201 13.3282 84.4563 12.0742 85.6794 11.6813C86.8831 11.2918 88.0064 11.9507 88.0364 13.3301Z" stroke="#0E4071" stroke-width="2"/>
<path fill-rule="evenodd" clip-rule="evenodd" d="M89.3794 6.52951C89.3917 6.92867 89.0464 7.4029 88.5863 7.57686C88.1456 7.74729 87.7809 7.56271 87.7721 7.18297C87.7747 6.81118 88.1121 6.34844 88.5413 6.17006C88.982 5.99963 89.359 6.14182 89.3794 6.52951Z" fill="#0E4071"/>
<path fill-rule="evenodd" clip-rule="evenodd" d="M77.9527 16.2463C77.9704 16.1227 78.0835 14.9782 78.6716 13.4663C79.2554 11.9853 80.3187 10.1061 82.3243 8.16592C84.2416 6.40239 86.332 5.37007 88.3561 5.02218C90.6248 4.63984 92.9333 5.08323 94.8302 6.46447C95.1093 6.2331 95.3883 6.00173 95.6754 5.75888C93.6169 4.09592 90.9896 3.72053 88.486 4.24592C86.2623 4.71038 84.0023 5.91402 82.0762 7.73937C80.9829 8.90152 80.0035 10.1935 79.2819 11.5791C78.533 12.9797 78.0446 14.5437 77.9527 16.2463Z" fill="#0E4071"/>
<path fill-rule="evenodd" clip-rule="evenodd" d="M85.318 2.35911C85.3242 2.00675 86.3027 1.42745 86.2877 1.84163C86.232 3.24667 86.179 4.72147 86.1048 6.30048C86.0367 7.96869 85.9705 9.757 85.8945 11.6575C85.8794 11.8509 85.5288 11.9648 85.5085 11.7979C85.4979 11.7396 85.4494 9.87179 85.4133 7.74083C85.3665 5.77236 85.3224 3.65288 85.318 2.35911Z" fill="#0E4071"/>
<path fill-rule="evenodd" clip-rule="evenodd" d="M91.6801 14.5273C91.7287 15.0704 91.3004 15.64 90.729 15.7539C90.1691 15.8757 89.7063 15.5384 89.6693 15.0032C89.6551 14.4839 90.0517 13.9603 90.5966 13.811C91.145 13.6812 91.6316 13.9841 91.6801 14.5273Z" fill="#0E4071"/>
<path d="M7.27759 15.9169C7.82009 16.1728 8.23975 16.5413 8.52635 17.0326C8.82319 17.5137 8.97672 18.0971 8.97672 18.7829C8.97672 19.7963 8.63894 20.5844 7.98386 21.1371C7.32877 21.7001 6.37685 21.9765 5.12809 21.9765H0V10.3896H4.86196C6.08002 10.3896 6.99099 10.666 7.61537 11.2187C8.22952 11.7715 8.54682 12.5084 8.54682 13.4194C8.54682 13.9619 8.43423 14.443 8.22952 14.8729C8.01457 15.313 7.69726 15.6508 7.27759 15.9169ZM3.01954 13.1226V14.8422H4.4423C5.11786 14.8422 5.4454 14.5556 5.4454 13.9824C5.4454 13.4092 5.11786 13.1226 4.4423 13.1226H3.01954ZM4.86196 19.2435C5.53752 19.2435 5.8753 18.9467 5.8753 18.3326C5.8753 17.7287 5.53752 17.4216 4.86196 17.4216H3.01954V19.2435H4.86196ZM16.326 19.96H12.8663L12.2522 21.9765H9.14049L13.112 10.3896H16.1315L20.1132 21.9765H16.9401L16.326 19.96ZM15.4866 17.1452L14.5961 14.228L13.7159 17.1452H15.4866ZM24.8421 22.2426C23.4398 22.2426 22.3548 21.7615 21.5769 20.7994C20.799 19.8372 20.41 18.4963 20.41 16.7665V10.3896H23.4705V16.6437C23.4705 17.4932 23.5933 18.1176 23.8287 18.4963C24.0744 18.8853 24.4122 19.0798 24.8626 19.0798C25.3129 19.0798 25.6609 18.8853 25.8964 18.4963C26.142 18.1176 26.2546 17.4932 26.2546 16.6437V10.3896H29.2741V16.7665C29.2741 18.4963 28.8852 19.8372 28.1073 20.7994C27.3294 21.7615 26.2341 22.2426 24.8421 22.2426ZM35.1392 10.3896C35.9785 10.3896 36.7053 10.5739 37.3297 10.9219C37.954 11.2802 38.4351 11.7817 38.7729 12.447C39.1107 13.1123 39.2847 13.88 39.2847 14.7603C39.2847 15.6406 39.1107 16.4185 38.7729 17.0736C38.4351 17.7389 37.954 18.2507 37.3297 18.5987C36.7053 18.9569 35.9785 19.1309 35.1392 19.1309H33.8188V21.9765H30.7481V10.3896H35.1392ZM34.9345 16.1216C35.3542 16.1216 35.6715 15.9988 35.8762 15.7634C36.0809 15.528 36.1833 15.1902 36.1833 14.7603C36.1833 14.3304 36.0809 14.0029 35.8762 13.7572C35.6715 13.5218 35.3542 13.4092 34.9345 13.4092H33.8188V16.1216H34.9345ZM40.3594 10.3896H43.4301V18.9467H47.5347V21.9765H40.3594V10.3896ZM54.7918 19.96H51.3321L50.718 21.9765H47.5961L51.5778 10.3896H54.5871L58.5688 21.9765H55.3957L54.7918 19.96ZM53.9422 17.1452L53.062 14.228L52.1714 17.1452H53.9422ZM60.6569 13.4194H57.9956V10.3896H66.3991V13.4194H63.7276V21.9765H60.6569V13.4194ZM75.2939 18.9467V21.9765H66.9313V19.5813L71.0973 13.4194H67.0644V10.3896H75.0892V12.795L70.9233 18.9467H75.2939Z" fill="url(#paint0_linear)"/>
<path d="M106.431 19.2052H105.551V22.1327H102.316V10.5049H106.933C107.823 10.5049 108.591 10.6789 109.256 11.0371C109.911 11.3852 110.423 11.8969 110.771 12.5623C111.129 13.2276 111.314 14.0055 111.314 14.8858C111.314 15.7149 111.15 16.4416 110.843 17.066C110.536 17.6801 110.085 18.1714 109.502 18.5399L111.518 22.1327H108.059L106.431 19.2052ZM108.048 14.8858C108.048 14.4559 107.936 14.1181 107.721 13.8827C107.496 13.6472 107.168 13.5244 106.728 13.5244H105.551V16.2471H106.728C107.168 16.2471 107.496 16.1345 107.721 15.8889C107.936 15.6534 108.048 15.3157 108.048 14.8858ZM119.062 20.106H115.418L114.773 22.1327H111.488L115.684 10.5049H118.857L123.054 22.1327H119.707L119.062 20.106ZM118.172 17.2809L117.24 14.3535L116.309 17.2809H118.172ZM123.576 10.5049H128.305C129.369 10.5049 130.311 10.7403 131.13 11.2111C131.949 11.682 132.583 12.3575 133.034 13.2276C133.494 14.0976 133.72 15.1314 133.72 16.3188C133.72 17.4959 133.494 18.5297 133.034 19.3997C132.583 20.28 131.949 20.9555 131.13 21.4264C130.311 21.8972 129.369 22.1327 128.305 22.1327H123.576V10.5049ZM128.162 19.0722C128.858 19.0722 129.421 18.8265 129.83 18.3454C130.25 17.8644 130.454 17.1888 130.454 16.3188C130.454 15.4385 130.25 14.7629 129.83 14.2819C129.421 13.8008 128.858 13.5551 128.162 13.5551H126.81V19.0722H128.162ZM141.294 20.106H137.65L137.005 22.1327H133.72L137.906 10.5049H141.089L145.286 22.1327H141.939L141.294 20.106ZM140.404 17.2809L139.472 14.3535L138.541 17.2809H140.404ZM149.912 19.2052H149.042V22.1327H145.808V10.5049H150.424C151.315 10.5049 152.082 10.6789 152.738 11.0371C153.393 11.3852 153.904 11.8969 154.263 12.5623C154.621 13.2276 154.795 14.0055 154.795 14.8858C154.795 15.7149 154.641 16.4416 154.334 17.066C154.017 17.6801 153.567 18.1714 152.983 18.5399L155 22.1327H151.55L149.912 19.2052ZM151.53 14.8858C151.53 14.4559 151.427 14.1181 151.202 13.8827C150.987 13.6472 150.66 13.5244 150.22 13.5244H149.042V16.2471H150.22C150.66 16.2471 150.987 16.1345 151.202 15.8889C151.427 15.6534 151.53 15.3157 151.53 14.8858Z" fill="url(#paint1_linear)"/>
<defs>
<linearGradient id="paint0_linear" x1="1.89389" y1="23.7382" x2="72.9752" y2="7.81608" gradientUnits="userSpaceOnUse">
<stop stop-color="#754E26"/>
<stop offset="0.231373" stop-color="#B6842B"/>
<stop offset="0.470588" stop-color="#F9D656"/>
<stop offset="0.729412" stop-color="#BB8A2F"/>
<stop offset="1" stop-color="#6D4A24"/>
</linearGradient>
<linearGradient id="paint1_linear" x1="101.537" y1="22.1276" x2="152.622" y2="10.2919" gradientUnits="userSpaceOnUse">
<stop stop-color="#7C5427"/>
<stop offset="0.231373" stop-color="#B9872D"/>
<stop offset="0.419608" stop-color="#F5D154"/>
<stop offset="0.729412" stop-color="#B6852E"/>
<stop offset="1" stop-color="#745025"/>
</linearGradient>
</defs>
</svg>
