<svg width="270" height="58" viewBox="0 0 270 58" fill="none" xmlns="http://www.w3.org/2000/svg">
<path fill-rule="evenodd" clip-rule="evenodd" d="M129.168 28.8709C129.564 26.7917 129.168 28.8709 129.168 28.8709C129.468 28.7811 129.769 28.6912 130.09 28.6153C129.58 31.3314 129.499 33.987 129.761 36.4923C130.074 39.1821 130.838 41.737 131.993 44.027C133.275 46.5231 135.091 48.7635 137.411 50.4896C139.974 52.383 142.983 53.6319 146.904 53.993C150.84 54.3339 155.325 53.5361 159.436 51.6444C163.8 49.6009 167.83 46.4914 171.081 42.4848C174.366 38.472 176.718 33.7837 177.857 28.9109C178.993 24.2148 178.914 19.4225 177.701 15.3647C176.488 11.3069 174.452 8.43737 171.888 6.24494C169.565 4.21985 166.815 2.94154 163.898 2.29228C161.258 1.71585 157.643 2.07367 154.533 2.69179C151.682 3.28048 149.702 3.81651 147.865 4.74919C146.027 5.68187 147.865 4.74919 147.865 4.74919C147.891 4.40988 147.897 4.05662 147.903 3.70337C150.606 2.2966 153.408 1.3469 156.149 0.831029C159.149 0.285724 162.173 0.264108 165.038 0.817306C168.228 1.41699 171.249 2.73404 173.843 4.79787C176.751 7.13905 179.063 10.1697 180.514 14.5715C181.986 18.9872 182.246 24.2923 181.075 29.4703C179.858 34.8853 177.28 40.0726 173.614 44.5068C169.99 48.8806 165.533 52.3495 160.65 54.4519C156.083 56.4443 151.17 57.2142 146.884 56.6904C142.599 56.1666 139.404 54.6698 136.649 52.4945C134.203 50.5623 132.295 48.1096 130.985 45.3548C129.792 42.8603 129.183 39.2208 128.982 35.9826C128.776 33.0093 128.771 30.9502 129.168 28.8709Z" fill="#0E4071"/>
<path fill-rule="evenodd" clip-rule="evenodd" d="M133.404 35.6162C133.708 35.3497 134.018 35.1173 134.321 34.8509C135.607 38.6314 138.271 41.7565 141.967 43.3029C146.197 45.0693 151.721 44.7518 157.481 40.9932C164.226 36.1577 167.02 30.3151 167.968 25.8467C168.899 21.5751 168.114 18.7072 168.01 18.4268C169.598 22.8038 168.959 27.8145 167.032 32.32C165.041 36.9603 161.854 40.8321 158.682 43.0461C152.632 47.0511 146.425 47.5808 141.675 45.6626C137.566 43.9799 134.65 40.5309 133.446 35.9431C133.44 35.9091 133.39 35.6364 133.404 35.6162Z" fill="#0E4071"/>
<path fill-rule="evenodd" clip-rule="evenodd" d="M169.389 6.75119C169.566 7.52898 168.794 8.51437 167.707 8.92337C166.619 9.33238 165.626 9.00234 165.489 8.25244C165.353 7.50254 166.077 6.54349 167.11 6.12674C168.178 5.70378 169.213 5.9734 169.389 6.75119Z" fill="#0E4071"/>
<path fill-rule="evenodd" clip-rule="evenodd" d="M151.733 22.5624C151.791 25.0166 149.74 27.6783 147.421 28.188C145.087 28.7179 143.525 27.1003 143.674 24.8196C143.809 22.5591 145.452 20.359 147.597 19.6696C149.709 18.9863 151.68 20.1422 151.733 22.5624Z" stroke="#0E4071" stroke-width="2"/>
<path fill-rule="evenodd" clip-rule="evenodd" d="M154.086 10.629C154.108 11.3294 153.502 12.1614 152.695 12.4666C151.922 12.7656 151.282 12.4417 151.266 11.7755C151.271 11.1232 151.863 10.3114 152.616 9.99841C153.389 9.6994 154.051 9.94886 154.086 10.629Z" fill="#0E4071"/>
<path fill-rule="evenodd" clip-rule="evenodd" d="M134.041 27.6785C134.072 27.4616 134.27 25.4536 135.302 22.8011C136.326 20.2028 138.192 16.9058 141.71 13.5019C145.074 10.4079 148.742 8.59676 152.293 7.9864C156.273 7.31562 160.323 8.09351 163.651 10.5168C164.141 10.1109 164.63 9.70496 165.134 9.2789C161.522 6.36134 156.913 5.70274 152.521 6.6245C148.619 7.43938 144.654 9.55108 141.275 12.7536C139.357 14.7925 137.639 17.0592 136.373 19.4901C135.059 21.9474 134.202 24.6913 134.041 27.6785Z" fill="#0E4071"/>
<path fill-rule="evenodd" clip-rule="evenodd" d="M146.961 3.31257C146.972 2.69437 148.688 1.67802 148.662 2.40468C148.564 4.86973 148.471 7.45718 148.341 10.2275C148.222 13.1542 148.105 16.2917 147.972 19.626C147.946 19.9653 147.331 20.1651 147.295 19.8723C147.276 19.77 147.191 16.4931 147.128 12.7545C147.046 9.30091 146.968 5.5824 146.961 3.31257Z" fill="#0E4071"/>
<path fill-rule="evenodd" clip-rule="evenodd" d="M158.122 24.6617C158.207 25.6146 157.455 26.6139 156.453 26.8138C155.47 27.0276 154.659 26.4357 154.594 25.4967C154.569 24.5857 155.265 23.667 156.22 23.4051C157.183 23.1774 158.036 23.7089 158.122 24.6617Z" fill="#0E4071"/>
<path d="M13.5533 23.5908C14.505 24.0398 15.2413 24.6863 15.7441 25.5483C16.2649 26.3923 16.5343 27.4159 16.5343 28.6191C16.5343 30.3969 15.9417 31.7797 14.7924 32.7494C13.643 33.7371 11.973 34.222 9.78209 34.222H0.785156V13.8936H9.31518C11.4522 13.8936 13.0504 14.3784 14.1459 15.3481C15.2233 16.3179 15.78 17.6109 15.78 19.2091C15.78 20.1609 15.5825 21.0049 15.2233 21.7591C14.8462 22.5313 14.2895 23.1239 13.5533 23.5908ZM6.08275 18.6883V21.7053H8.57891C9.76413 21.7053 10.3388 21.2024 10.3388 20.1968C10.3388 19.1911 9.76413 18.6883 8.57891 18.6883H6.08275ZM9.31518 29.4272C10.5004 29.4272 11.093 28.9064 11.093 27.8289C11.093 26.7694 10.5004 26.2307 9.31518 26.2307H6.08275V29.4272H9.31518ZM29.4281 30.6842H23.3583L22.2808 34.222H16.8216L23.7893 13.8936H29.0869L36.0725 34.222H30.5056L29.4281 30.6842ZM27.9555 25.7458L26.3932 20.6278L24.8488 25.7458H27.9555ZM44.3691 34.6889C41.9089 34.6889 40.0053 33.8448 38.6405 32.1568C37.2757 30.4687 36.5933 28.1163 36.5933 25.0814V13.8936H41.9627V24.8659C41.9627 26.3564 42.1782 27.4518 42.5913 28.1163C43.0223 28.7987 43.6149 29.1399 44.405 29.1399C45.1952 29.1399 45.8057 28.7987 46.2188 28.1163C46.6498 27.4518 46.8473 26.3564 46.8473 24.8659V13.8936H52.1449V25.0814C52.1449 28.1163 51.4625 30.4687 50.0977 32.1568C48.7329 33.8448 46.8114 34.6889 44.3691 34.6889ZM62.4348 13.8936C63.9073 13.8936 65.1824 14.2168 66.2778 14.8274C67.3732 15.4559 68.2173 16.3358 68.8099 17.5031C69.4025 18.6704 69.7078 20.0172 69.7078 21.5616C69.7078 23.106 69.4025 24.4708 68.8099 25.6201C68.2173 26.7874 67.3732 27.6853 66.2778 28.2958C65.1824 28.9244 63.9073 29.2296 62.4348 29.2296H60.1182V34.222H54.7308V13.8936H62.4348ZM62.0756 23.95C62.8119 23.95 63.3686 23.7345 63.7278 23.3215C64.0869 22.9084 64.2665 22.3158 64.2665 21.5616C64.2665 20.8074 64.0869 20.2327 63.7278 19.8017C63.3686 19.3887 62.8119 19.1911 62.0756 19.1911H60.1182V23.95H62.0756ZM71.5934 13.8936H76.9807V28.9064H84.1819V34.222H71.5934V13.8936ZM96.9141 30.6842H90.8443L89.7668 34.222H84.2896L91.2753 13.8936H96.5549L103.541 34.222H97.9736L96.9141 30.6842ZM95.4236 25.7458L93.8792 20.6278L92.3168 25.7458H95.4236ZM107.204 19.2091H102.535V13.8936H117.278V19.2091H112.591V34.222H107.204V19.2091ZM132.884 28.9064V34.222H118.212V30.0198L125.521 19.2091H118.446V13.8936H132.525V18.1137L125.216 28.9064H132.884Z" fill="url(#paint0_linear)"/>
<path d="M184.004 29.359H182.46V34.495H176.785V14.0947H184.884C186.447 14.0947 187.793 14.4 188.961 15.0285C190.11 15.6391 191.008 16.537 191.618 17.7043C192.247 18.8715 192.57 20.2363 192.57 21.7807C192.57 23.2353 192.283 24.5103 191.744 25.6058C191.205 26.6833 190.415 27.5452 189.392 28.1917L192.929 34.495H186.86L184.004 29.359ZM186.842 21.7807C186.842 21.0265 186.644 20.4339 186.267 20.0209C185.872 19.6078 185.297 19.3923 184.525 19.3923H182.46V24.1691H184.525C185.297 24.1691 185.872 23.9716 186.267 23.5406C186.644 23.1276 186.842 22.535 186.842 21.7807ZM206.164 30.9393H199.771L198.64 34.495H192.875L200.238 14.0947H205.805L213.168 34.495H207.296L206.164 30.9393ZM204.602 25.9829L202.968 20.8469L201.334 25.9829H204.602ZM214.084 14.0947H222.38C224.248 14.0947 225.9 14.5078 227.337 15.3338C228.773 16.1599 229.887 17.3451 230.677 18.8715C231.485 20.398 231.88 22.2117 231.88 24.2948C231.88 26.36 231.485 28.1738 230.677 29.7002C229.887 31.2446 228.773 32.4298 227.337 33.2559C225.9 34.0819 224.248 34.495 222.38 34.495H214.084V14.0947ZM222.129 29.1255C223.35 29.1255 224.338 28.6945 225.056 27.8505C225.792 27.0065 226.152 25.8213 226.152 24.2948C226.152 22.7505 225.792 21.5652 225.056 20.7212C224.338 19.8772 223.35 19.4462 222.129 19.4462H219.759V29.1255H222.129ZM245.169 30.9393H238.776L237.645 34.495H231.88L239.225 14.0947H244.81L252.173 34.495H246.3L245.169 30.9393ZM243.607 25.9829L241.973 20.8469L240.338 25.9829H243.607ZM260.29 29.359H258.763V34.495H253.088V14.0947H261.188C262.75 14.0947 264.097 14.4 265.246 15.0285C266.395 15.6391 267.293 16.537 267.922 17.7043C268.55 18.8715 268.856 20.2363 268.856 21.7807C268.856 23.2353 268.586 24.5103 268.047 25.6058C267.491 26.6833 266.701 27.5452 265.677 28.1917L269.215 34.495H263.163L260.29 29.359ZM263.127 21.7807C263.127 21.0265 262.947 20.4339 262.552 20.0209C262.175 19.6078 261.601 19.3923 260.828 19.3923H258.763V24.1691H260.828C261.601 24.1691 262.175 23.9716 262.552 23.5406C262.947 23.1276 263.127 22.535 263.127 21.7807Z" fill="url(#paint1_linear)"/>
<defs>
<linearGradient id="paint0_linear" x1="4.10788" y1="37.3129" x2="128.816" y2="9.37839" gradientUnits="userSpaceOnUse">
<stop stop-color="#754E26"/>
<stop offset="0.231373" stop-color="#B6842B"/>
<stop offset="0.470588" stop-color="#F9D656"/>
<stop offset="0.729412" stop-color="#BB8A2F"/>
<stop offset="1" stop-color="#6D4A24"/>
</linearGradient>
<linearGradient id="paint1_linear" x1="175.419" y1="34.4862" x2="265.043" y2="13.721" gradientUnits="userSpaceOnUse">
<stop stop-color="#7C5427"/>
<stop offset="0.231373" stop-color="#B9872D"/>
<stop offset="0.419608" stop-color="#F5D154"/>
<stop offset="0.729412" stop-color="#B6852E"/>
<stop offset="1" stop-color="#745025"/>
</linearGradient>
</defs>
</svg>
